HIERARCHY
ROOT pelvis
{
  OFFSET 0 100 0
  CHANNELS 6 Xposition Yposition Zposition Zrotation Xrotation Yrotation
  JOINT pelvis_right_femur
  {
    OFFSET -10.78128 -3.44521 -0.5502486
    CHANNELS 3 Zrotation Xrotation Yrotation
    JOINT right_femur_tibia
    {
      OFFSET -0.8047443 -44.0398 -0.1307829
      CHANNELS 3 Zrotation Xrotation Yrotation
      JOINT right_tibia_foot
      {
        OFFSET 3.006224 -47.83518 -5
        CHANNELS 3 Zrotation Xrotation Yrotation
        End Site
        {
          OFFSET 0 -5 15
        }
      }
    }
  }
  JOINT pelvis_left_femur
  {
    OFFSET 10.78128 -3.44521 -0.5502486
    CHANNELS 3 Zrotation Xrotation Yrotation
    JOINT left_femur_tibia
    {
      OFFSET 0.8047443 -44.0398 -0.1307829
      CHANNELS 3 Zrotation Xrotation Yrotation
      JOINT left_tibia_foot
      {
        OFFSET -4.370144 -48.10324 -4.275266
        CHANNELS 3 Zrotation Xrotation Yrotation
        End Site
        {
          OFFSET 0 -5 15
        }
      }
    }
  }
  JOINT pelvis_spine1
  {
    OFFSET 0 6.468898 -3.129235
    CHANNELS 3 Zrotation Xrotation Yrotation
    JOINT spine1
    {
      OFFSET 0 23.15396 4.99043
      CHANNELS 3 Zrotation Xrotation Yrotation
      JOINT spine2
      {
        OFFSET 0 20.79997 -5.064912
        CHANNELS 3 Zrotation Xrotation Yrotation
        JOINT neck
        {
          OFFSET 0 14.38658 9.616178
          CHANNELS 3 Zrotation Xrotation Yrotation
          End Site
          {
            OFFSET 0 20 0
          }
        }
      }
      JOINT right_manubrium
      {
        OFFSET -5.722621 16.35077 3.967754
        CHANNELS 3 Zrotation Xrotation Yrotation
        JOINT right_clavicle
        {
          OFFSET -13.16364 1.694482 -4.693211
          CHANNELS 3 Zrotation Xrotation Yrotation
          JOINT right_humerus
          {
            OFFSET -28.5034 -0.3100689 -2.792744
            CHANNELS 3 Zrotation Xrotation Yrotation
            JOINT right_radius
            {
              OFFSET -25.15693 0.02248979 -1.271978
              CHANNELS 3 Zrotation Xrotation Yrotation
              End Site
              {
                OFFSET -15 0 0
              }
            }
          }
        }
      }
      JOINT left_manubrium
      {
        OFFSET 5.722621 16.35077 3.967754
        CHANNELS 3 Zrotation Xrotation Yrotation
        JOINT left_clavicle
        {
          OFFSET 13.16364 1.694482 -4.693211
          CHANNELS 3 Zrotation Xrotation Yrotation
          JOINT left_humerus
          {
            OFFSET 29.39168 -1.063119 -2.237045
            CHANNELS 3 Zrotation Xrotation Yrotation
            JOINT left_radius
            {
              OFFSET 24.59957 -0.9528479 0.9047498
              CHANNELS 3 Zrotation Xrotation Yrotation
              End Site
              {
                OFFSET 15 -0 -0
              }
            }
          }
        }
      }
    }
  }
}
MOTION
Frames: 17
Frame Time: 0.0416666666667
0 103.5113 0 1.767087 -1.8227 3.441517e-05 0.1085834 -12.03306 8.438185 -0 40.69743 -0 -6.142037 -14.03419 -3.095494 -7.340599 11.76618 -26.48515 -0 5.070852 -0 -0.03024039 -20.08261 25.67903 -2.009523 -1.586617 3.723861 1.127746 5.944676 -6.98505 1.728881 23.42993 7.136996 4.597202 -21.60558 8.210245 6.278031 -17.65444 10.25513 85.17253 35.21521 -21.13121 -0 0 16.77541 -6.775668 7.346058 2.526266 5.735783 -18.9849 -3.08333 -99.90702 42.61711 26.95817 0 0 -23.53196 -10.65758 18.75341 27.84028
0.21939 103.5073 1.318474 1.677915 -1.35233 -0.02951206 0.4688954 -13.43324 9.129645 -0 40.99013 -0 -5.137845 -15.44378 -3.524604 -7.304178 12.17026 -26.75562 -0 4.357964 -0 0.04386216 -20.50981 25.66173 -1.952159 -1.604504 3.677774 1.117927 5.95306 -7.035356 1.732707 23.4339 7.227294 4.61739 -21.65722 8.316601 6.209985 -17.60998 10.23994 85.48109 35.26246 -21.52133 -0 0 16.57189 -6.873503 7.56463 2.370307 5.815095 -19.14374 -3.120038 -99.79353 42.71733 26.7662 0 0 -24.01603 -10.68631 18.95509 27.89146
0.416033 103.2741 2.798192 1.540702 -1.067056 -0.05962587 1.255595 -17.23101 7.444436 -0 36.55226 -0 -5.959466 -11.75457 -2.384871 -7.382046 12.65515 -25.52966 -0 5.264995 -0 0.9467867 -22.14922 25.29433 -1.864555 -1.226532 4.172921 1.158377 6.702016 -6.791651 1.357919 23.10525 7.550591 4.526705 -22.18107 8.184224 5.920633 -17.9533 10.71207 85.02277 35.87891 -19.74797 -0 0 16.05599 -10.48684 9.580704 4.840746 5.160388 -19.01627 -3.0539 -98.3106 39.56151 26.51895 0 0 -22.29947 -9.178255 17.18665 26.25968
0.5957252 102.8419 4.457558 1.358815 -0.6355474 -0.07831708 1.928351 -20.53294 6.280606 -0 32.75026 -0 -6.333274 -9.342301 -1.640122 -7.357929 13.04914 -24.44634 -0 5.592572 -0 1.544196 -23.41001 24.78904 -1.770124 -1.104905 4.190014 1.296424 7.014436 -6.897666 1.202572 22.93992 7.746871 4.427162 -22.63607 8.291795 5.698402 -17.93553 10.88501 85.54337 36.19782 -19.89439 -0 0 15.24721 -11.71388 10.5041 5.620138 4.94986 -19.24716 -3.034244 -97.30172 38.39271 25.82383 0 0 -22.4566 -8.38087 16.62897 25.43952
0.761898 102.2282 6.340252 1.055481 0.04878881 -0.0567175 2.815647 -24.08191 5.602009 -0 29.2033 -0 -6.194043 -7.952926 -1.30504 -7.204213 13.51577 -23.30769 -0 5.565398 -0 2.13277 -24.39309 24.06353 -1.739028 -1.018796 4.117896 1.515482 7.236626 -7.071719 1.074048 22.79084 7.816381 4.283879 -23.11372 8.339212 5.550732 -17.8636 11.02118 86.05409 36.41852 -20.14374 -0 0 14.45003 -12.22913 10.92547 6.190532 4.728007 -19.42151 -2.971277 -96.40109 37.48369 25.11106 0 0 -22.55754 -7.593082 16.06586 24.62032
0.9176241 101.4632 8.511331 0.6744972 0.9027374 0.03236517 3.784397 -27.51832 5.220763 -0 25.9338 -0 -5.782529 -7.060839 -1.195414 -6.975301 13.98366 -22.14286 -0 5.539444 -0 2.479921 -25.09711 23.07251 -1.708262 -0.9976181 3.907407 1.801223 7.358481 -7.361657 0.9830775 22.66964 7.854806 4.12527 -23.66997 8.448976 5.414754 -17.70272 11.09805 86.87251 36.60264 -20.91648 -0 0 13.49452 -12.05629 11.07045 6.33358 4.590033 -19.69654 -2.898238 -95.56575 37.00364 24.24907 0 0 -23.10418 -6.87506 15.77823 23.89346
1.066986 100.5899 11.06422 0.2087271 1.89763 0.2118376 4.829877 -30.74541 5.033465 -0 22.89356 -0 -5.242373 -6.397641 -1.231935 -6.675589 14.43186 -20.89923 -0 5.80924 -0 2.510042 -25.45299 21.72946 -1.682134 -1.007778 3.649524 2.112678 7.435821 -7.693505 0.9120227 22.55304 7.872695 3.958509 -24.25329 8.58368 5.29154 -17.51988 11.14908 87.78426 36.74751 -21.87058 -0 0 12.52538 -11.56206 11.07697 6.289909 4.492181 -19.99558 -2.812025 -94.78155 36.68539 23.35463 0 0 -23.80037 -6.168433 15.59198 23.18318
1.214948 99.66633 14.10842 -0.3335714 2.96556 0.497714 5.885733 -33.51967 4.943468 -0 20.14852 -0 -4.729145 -5.766474 -1.349618 -6.314574 14.82169 -19.57396 -0 6.715186 -0 2.113547 -25.3463 19.98441 -1.650293 -1.040665 3.373347 2.426562 7.488098 -8.044427 0.8583601 22.43456 7.8903 3.791222 -24.84103 8.75088 5.170109 -17.33435 11.18151 88.7572 36.85619 -22.94449 -0 0 11.5786 -10.90925 11.04444 6.11854 4.435351 -20.31495 -2.720193 -94.03921 36.46561 22.45336 0 0 -24.62743 -5.480033 15.48629 22.49884
1.367984 98.7709 17.75888 -0.9393598 4.008979 0.8931921 6.872455 -35.5459 4.869083 -0 17.83572 -0 -4.392452 -5.0574 -1.512571 -5.897982 15.10401 -18.18145 -0 8.673868 -0 1.221634 -24.60998 17.83552 -1.613722 -1.077527 3.125789 2.71059 7.539438 -8.370371 0.815357 22.31249 7.915422 3.635428 -25.38115 8.926802 5.052396 -17.17317 11.20836 89.67268 36.93102 -23.96366 -0 0 10.73193 -10.31289 11.05028 5.936416 4.40209 -20.61834 -2.632543 -93.35148 36.24512 21.61579 0 0 -25.44849 -4.829428 15.39118 21.85442
1.533945 98.00715 22.11136 -1.573638 4.882038 1.378597 7.684328 -36.45977 4.73444 -0 16.15487 -0 -4.383764 -4.233313 -1.693006 -5.438027 15.19129 -16.76935 -0 12.16291 -0 -0.1704943 -23.06211 15.38391 -1.575416 -1.099588 2.945237 2.93336 7.606984 -8.629311 0.7757912 22.19485 7.953623 3.507326 -25.81776 9.080899 4.943706 -17.05309 11.24016 90.41766 36.98548 -24.76832 -0 0 10.04593 -9.96704 11.15296 5.847032 4.374228 -20.87299 -2.564035 -92.74362 35.95915 20.91252 0 0 -26.13052 -4.260097 15.25673 21.28791
1.720132 97.50325 27.20625 -2.170262 5.393921 1.900714 8.216078 -35.88273 4.480932 -0 15.28828 -0 -4.839415 -3.335831 -1.85773 -4.954541 14.92459 -15.40621 -0 17.63351 -0 -1.968206 -20.57307 12.8657 -1.542797 -1.087384 2.866712 3.06471 7.703391 -8.77773 0.7319053 22.09547 8.004772 3.424547 -26.0909 9.173535 4.854635 -16.98658 11.28663 90.86721 37.03853 -25.18776 -0 0 9.579589 -10.04631 11.38473 5.953682 4.330463 -21.04085 -2.530308 -92.25114 35.55519 20.41984 0 0 -26.51641 -3.821296 15.03799 20.83931
1.927543 97.397 32.9837 -2.628927 5.334979 2.368954 8.40409 -33.52299 4.089859 -0 15.25746 -0 -5.834425 -2.49563 -1.960229 -4.472167 14.04561 -14.15585 -0 25.29702 -0 -3.976278 -17.18137 10.64323 -1.524118 -1.02821 2.913079 3.084122 7.833802 -8.784308 0.6798928 22.02597 8.063155 3.398143 -26.15447 9.1734 4.796024 -16.98141 11.35271 90.92427 37.10006 -25.09499 -0 0 9.381623 -10.65087 11.74451 6.325241 4.256121 -21.08993 -2.540759 -91.90444 35.00649 20.1929 0 0 -26.48303 -3.547689 14.70663 20.53427
2.141767 97.79503 39.24934 -2.835875 4.540451 2.671069 8.26679 -29.32456 3.602271 -0 15.76894 -0 -7.298162 -1.94207 -1.958978 -4.009078 12.21527 -13.03591 -0 34.80552 -0 -5.941798 -13.20851 9.120927 -1.525008 -0.9215855 3.08964 2.987912 7.995802 -8.641423 0.6229197 21.9869 8.118266 3.425406 -25.9924 9.072113 4.773686 -17.0418 11.43647 90.55236 37.15572 -24.44888 -0 0 9.483473 -11.76961 12.19932 6.972011 4.149786 -21.00378 -2.592578 -91.71164 34.31381 20.24281 0 0 -25.98965 -3.439776 14.25166 20.36878
2.328088 98.70682 45.68551 -2.714755 2.980802 2.712861 7.906134 -23.59968 3.109826 -0 16.20178 -0 -8.930947 -1.979518 -1.864511 -3.559143 9.123218 -11.98605 -0 44.98044 -0 -7.606735 -9.271957 8.604026 -1.545687 -0.7795889 3.381985 2.79032 8.180186 -8.368446 0.5704148 21.96747 8.158601 3.490422 -25.6243 8.888239 4.785024 -17.16707 11.5295 89.79354 37.16799 -23.31387 -0 0 9.88746 -13.28387 12.69846 7.839348 4.023835 -20.7884 -2.672245 -91.6548 33.50898 20.53161 0 0 -25.09863 -3.467904 13.68359 20.31669
2.444774 99.98658 51.93734 -2.286177 0.8370962 2.461071 7.461524 -17.02739 2.712782 -0 15.8748 -0 -10.23163 -2.886128 -1.764532 -3.075415 4.667264 -10.88191 -0 53.89195 -0 -8.731059 -6.096193 9.159397 -1.581662 -0.6201167 3.765257 2.512489 8.373202 -7.997076 0.5339671 21.95506 8.175929 3.574395 -25.08765 8.654162 4.821993 -17.35329 11.62021 88.73736 37.09451 -21.81569 -0 0 10.57557 -15.03011 13.19446 8.83572 3.897423 -20.46416 -2.764068 -91.71183 32.65058 21.00562 0 0 -23.92879 -3.601681 13.0353 20.35794
2.477053 101.3422 57.7501 -1.684579 -1.500346 1.952442 7.04603 -10.43667 2.463061 -0 14.46071 -0 -10.72951 -4.753894 -1.750577 -2.471896 -0.9283332 -9.604915 -0 59.47395 -0 -9.122331 -4.170253 10.55745 -1.626411 -0.4589748 4.221805 2.165987 8.560053 -7.548341 0.5242935 21.94352 8.167409 3.666613 -24.40904 8.399291 4.877394 -17.60166 11.69765 87.459 36.90339 -20.05984 -0 0 11.54499 -16.87892 13.66056 9.875192 3.789365 -20.04665 -2.857263 -91.88748 31.80768 21.6456 0 0 -22.57835 -3.838385 12.35378 20.50303
2.464137 102.4327 63.06829 -1.098979 -3.550667 1.261733 6.703877 -4.467748 2.323316 -0 12.14708 -0 -10.29196 -7.397201 -1.797682 -1.657077 -7.167857 -8.119603 -0 60.38822 -0 -8.729396 -3.50229 12.35796 -1.672838 -0.3068719 4.752891 1.745181 8.728711 -7.021369 0.5512013 21.9318 8.135696 3.766338 -23.59082 8.145509 4.947611 -17.92662 11.75349 85.98413 36.57204 -18.08507 -0 0 12.83633 -18.77348 14.09897 10.90234 3.716641 -19.53462 -2.945598 -92.22139 31.03599 22.48699 0 0 -21.08653 -4.20144 11.6857 20.78802
